<?xml version="1.0" encoding="utf-8"?>
<!-- Generator: Adobe Illustrator 15.0.0, SVG Export Plug-In . SVG Version: 6.00 Build 0)  -->
<!DOCTYPE svg PUBLIC "-//W3C//DTD SVG 1.1//EN" "http://www.w3.org/Graphics/SVG/1.1/DTD/svg11.dtd">
<svg version="1.1" xmlns="http://www.w3.org/2000/svg" width="360px" height="155px" viewBox="0 0 360 155" enable-background="new 0 0 360 155">
<path fill="#6FAA46" d="M221.582,111.447c0-3.492,2.833-6.322,6.325-6.322s6.325,2.83,6.325,6.322s-2.833,6.322-6.325,6.322
	S221.582,114.939,221.582,111.447 M281.404,9.609c0,3.492,2.833,6.322,6.324,6.322c3.492,0,6.326-2.83,6.326-6.322
	s-2.834-6.325-6.326-6.325C284.237,3.284,281.404,6.117,281.404,9.609 M281.404,26.581c0,3.492,2.833,6.322,6.324,6.322
	c3.492,0,6.326-2.83,6.326-6.322s-2.834-6.322-6.326-6.322C284.237,20.259,281.404,23.089,281.404,26.581 M281.404,43.554
	c0,3.491,2.833,6.325,6.324,6.325c3.492,0,6.326-2.834,6.326-6.325c0-3.489-2.834-6.322-6.326-6.322
	C284.237,37.231,281.404,40.064,281.404,43.554 M281.404,60.528c0,3.492,2.833,6.322,6.324,6.322c3.492,0,6.326-2.83,6.326-6.322
	s-2.834-6.322-6.326-6.322C284.237,54.206,281.404,57.036,281.404,60.528 M281.404,77.5c0,3.492,2.833,6.325,6.324,6.325
	c3.492,0,6.326-2.833,6.326-6.325c0-3.489-2.834-6.322-6.326-6.322C284.237,71.178,281.404,74.011,281.404,77.5 M281.404,94.476
	c0,3.489,2.833,6.322,6.324,6.322c3.492,0,6.326-2.833,6.326-6.322c0-3.492-2.834-6.325-6.326-6.325
	C284.237,88.15,281.404,90.983,281.404,94.476 M281.404,111.447c0,3.492,2.833,6.322,6.324,6.322c3.492,0,6.326-2.83,6.326-6.322
	s-2.834-6.322-6.326-6.322C284.237,105.125,281.404,107.955,281.404,111.447 M281.404,128.42c0,3.491,2.833,6.325,6.324,6.325
	c3.492,0,6.326-2.834,6.326-6.325c0-3.489-2.834-6.322-6.326-6.322C284.237,122.098,281.404,124.931,281.404,128.42
	 M281.404,145.395c0,3.492,2.833,6.322,6.324,6.322c3.492,0,6.326-2.83,6.326-6.322s-2.834-6.325-6.326-6.325
	C284.237,139.069,281.404,141.902,281.404,145.395 M297.158,18.094c0,3.492,2.83,6.325,6.322,6.325c3.495,0,6.325-2.833,6.325-6.325
	c0-3.489-2.83-6.322-6.325-6.322C299.988,11.771,297.158,14.604,297.158,18.094 M297.158,35.068c0,3.492,2.83,6.322,6.322,6.322
	c3.495,0,6.325-2.83,6.325-6.322s-2.83-6.325-6.325-6.325C299.988,28.743,297.158,31.576,297.158,35.068 M297.158,52.041
	c0,3.492,2.83,6.325,6.322,6.325c3.495,0,6.325-2.833,6.325-6.325s-2.83-6.322-6.325-6.322
	C299.988,45.719,297.158,48.549,297.158,52.041 M297.158,69.016c0,3.489,2.83,6.322,6.322,6.322c3.495,0,6.325-2.833,6.325-6.322
	c0-3.492-2.83-6.325-6.325-6.325C299.988,62.69,297.158,65.523,297.158,69.016 M297.158,85.988c0,3.491,2.83,6.322,6.322,6.322
	c3.495,0,6.325-2.831,6.325-6.322c0-3.492-2.83-6.322-6.325-6.322C299.988,79.666,297.158,82.496,297.158,85.988 M297.158,102.96
	c0,3.492,2.83,6.325,6.322,6.325c3.495,0,6.325-2.833,6.325-6.325c0-3.489-2.83-6.322-6.325-6.322
	C299.988,96.638,297.158,99.471,297.158,102.96 M297.158,119.935c0,3.492,2.83,6.322,6.322,6.322c3.495,0,6.325-2.83,6.325-6.322
	s-2.83-6.325-6.325-6.325C299.988,113.609,297.158,116.442,297.158,119.935 M297.158,136.907c0,3.492,2.83,6.322,6.322,6.322
	c3.495,0,6.325-2.83,6.325-6.322s-2.83-6.322-6.325-6.322C299.988,130.585,297.158,133.415,297.158,136.907 M312.076,26.581
	c0,3.492,2.833,6.322,6.325,6.322s6.325-2.83,6.325-6.322s-2.833-6.322-6.325-6.322S312.076,23.089,312.076,26.581 M312.076,43.554
	c0,3.491,2.833,6.325,6.325,6.325s6.325-2.834,6.325-6.325c0-3.489-2.833-6.322-6.325-6.322S312.076,40.064,312.076,43.554
	 M312.076,60.528c0,3.492,2.833,6.322,6.325,6.322s6.325-2.83,6.325-6.322s-2.833-6.322-6.325-6.322S312.076,57.036,312.076,60.528
	 M312.076,77.5c0,3.492,2.833,6.325,6.325,6.325s6.325-2.833,6.325-6.325c0-3.489-2.833-6.322-6.325-6.322
	S312.076,74.011,312.076,77.5 M312.076,94.476c0,3.489,2.833,6.322,6.325,6.322s6.325-2.833,6.325-6.322
	c0-3.492-2.833-6.325-6.325-6.325S312.076,90.983,312.076,94.476 M312.076,111.447c0,3.492,2.833,6.322,6.325,6.322
	s6.325-2.83,6.325-6.322s-2.833-6.322-6.325-6.322S312.076,107.955,312.076,111.447 M312.076,128.42
	c0,3.491,2.833,6.325,6.325,6.325s6.325-2.834,6.325-6.325c0-3.489-2.833-6.322-6.325-6.322S312.076,124.931,312.076,128.42
	 M327.189,35.068c0,3.492,2.83,6.322,6.322,6.322c3.495,0,6.328-2.83,6.328-6.322s-2.833-6.325-6.328-6.325
	C330.02,28.743,327.189,31.576,327.189,35.068 M327.189,52.041c0,3.492,2.83,6.325,6.322,6.325c3.495,0,6.328-2.833,6.328-6.325
	s-2.833-6.322-6.328-6.322C330.02,45.719,327.189,48.549,327.189,52.041 M327.189,69.016c0,3.489,2.83,6.322,6.322,6.322
	c3.495,0,6.328-2.833,6.328-6.322c0-3.492-2.833-6.325-6.328-6.325C330.02,62.69,327.189,65.523,327.189,69.016 M327.189,85.988
	c0,3.491,2.83,6.322,6.322,6.322c3.495,0,6.328-2.831,6.328-6.322c0-3.492-2.833-6.322-6.328-6.322
	C330.02,79.666,327.189,82.496,327.189,85.988 M327.189,102.96c0,3.492,2.83,6.325,6.322,6.325c3.495,0,6.328-2.833,6.328-6.325
	c0-3.489-2.833-6.322-6.328-6.322C330.02,96.638,327.189,99.471,327.189,102.96 M327.189,119.935c0,3.492,2.83,6.322,6.322,6.322
	c3.495,0,6.328-2.83,6.328-6.322s-2.833-6.325-6.328-6.325C330.02,113.609,327.189,116.442,327.189,119.935 M342.35,43.554
	c0,3.491,2.833,6.325,6.322,6.325c3.494,0,6.328-2.834,6.328-6.325c0-3.489-2.834-6.322-6.328-6.322
	C345.183,37.231,342.35,40.064,342.35,43.554 M342.35,60.528c0,3.492,2.833,6.322,6.322,6.322c3.494,0,6.328-2.83,6.328-6.322
	s-2.834-6.322-6.328-6.322C345.183,54.206,342.35,57.036,342.35,60.528 M342.35,77.5c0,3.492,2.833,6.325,6.322,6.325
	c3.494,0,6.328-2.833,6.328-6.325c0-3.489-2.834-6.322-6.328-6.322C345.183,71.178,342.35,74.011,342.35,77.5 M342.35,94.476
	c0,3.489,2.833,6.322,6.322,6.322c3.494,0,6.328-2.833,6.328-6.322c0-3.492-2.834-6.325-6.328-6.325
	C345.183,88.15,342.35,90.983,342.35,94.476 M342.35,111.447c0,3.492,2.833,6.322,6.322,6.322c3.494,0,6.328-2.83,6.328-6.322
	s-2.834-6.322-6.328-6.322C345.183,105.125,342.35,107.955,342.35,111.447 M266.677,18.094c0,3.492,2.83,6.325,6.322,6.325
	c3.495,0,6.328-2.833,6.328-6.325c0-3.489-2.833-6.322-6.328-6.322C269.507,11.771,266.677,14.604,266.677,18.094 M266.677,35.068
	c0,3.492,2.83,6.322,6.322,6.322c3.495,0,6.328-2.83,6.328-6.322s-2.833-6.325-6.328-6.325
	C269.507,28.743,266.677,31.576,266.677,35.068 M266.677,52.041c0,3.492,2.83,6.325,6.322,6.325c3.495,0,6.328-2.833,6.328-6.325
	s-2.833-6.322-6.328-6.322C269.507,45.719,266.677,48.549,266.677,52.041 M266.677,69.016c0,3.489,2.83,6.322,6.322,6.322
	c3.495,0,6.328-2.833,6.328-6.322c0-3.492-2.833-6.325-6.328-6.325C269.507,62.69,266.677,65.523,266.677,69.016 M266.677,85.988
	c0,3.491,2.83,6.322,6.322,6.322c3.495,0,6.328-2.831,6.328-6.322c0-3.492-2.833-6.322-6.328-6.322
	C269.507,79.666,266.677,82.496,266.677,85.988 M266.677,102.96c0,3.492,2.83,6.325,6.322,6.325c3.495,0,6.328-2.833,6.328-6.325
	c0-3.489-2.833-6.322-6.328-6.322C269.507,96.638,266.677,99.471,266.677,102.96 M266.677,119.935c0,3.492,2.83,6.322,6.322,6.322
	c3.495,0,6.328-2.83,6.328-6.322s-2.833-6.325-6.328-6.325C269.507,113.609,266.677,116.442,266.677,119.935 M266.677,136.907
	c0,3.492,2.83,6.322,6.322,6.322c3.495,0,6.328-2.83,6.328-6.322s-2.833-6.322-6.328-6.322
	C269.507,130.585,266.677,133.415,266.677,136.907 M251.69,26.581c0,3.492,2.833,6.322,6.325,6.322c3.495,0,6.325-2.83,6.325-6.322
	s-2.83-6.322-6.325-6.322C254.523,20.259,251.69,23.089,251.69,26.581 M251.69,43.554c0,3.491,2.833,6.325,6.325,6.325
	c3.495,0,6.325-2.834,6.325-6.325c0-3.489-2.83-6.322-6.325-6.322C254.523,37.231,251.69,40.064,251.69,43.554 M251.69,60.528
	c0,3.492,2.833,6.322,6.325,6.322c3.495,0,6.325-2.83,6.325-6.322s-2.83-6.322-6.325-6.322
	C254.523,54.206,251.69,57.036,251.69,60.528 M251.69,77.5c0,3.492,2.833,6.325,6.325,6.325c3.495,0,6.325-2.833,6.325-6.325
	c0-3.489-2.83-6.322-6.325-6.322C254.523,71.178,251.69,74.011,251.69,77.5 M251.69,111.447c0,3.492,2.833,6.322,6.325,6.322
	c3.495,0,6.325-2.83,6.325-6.322s-2.83-6.322-6.325-6.322C254.523,105.125,251.69,107.955,251.69,111.447 M251.69,128.42
	c0,3.491,2.833,6.325,6.325,6.325c3.495,0,6.325-2.834,6.325-6.325c0-3.489-2.83-6.322-6.325-6.322
	C254.523,122.098,251.69,124.931,251.69,128.42 M236.389,35.068c0,3.492,2.831,6.322,6.322,6.322c3.495,0,6.322-2.83,6.322-6.322
	s-2.827-6.325-6.322-6.325C239.22,28.743,236.389,31.576,236.389,35.068 M236.389,52.041c0,3.492,2.831,6.325,6.322,6.325
	c3.495,0,6.322-2.833,6.322-6.325s-2.827-6.322-6.322-6.322C239.22,45.719,236.389,48.549,236.389,52.041 M236.389,69.016
	c0,3.489,2.831,6.322,6.322,6.322c3.495,0,6.322-2.833,6.322-6.322c0-3.492-2.827-6.325-6.322-6.325
	C239.22,62.69,236.389,65.523,236.389,69.016 M236.389,85.988c0,3.491,2.831,6.322,6.322,6.322c3.495,0,6.322-2.831,6.322-6.322
	c0-3.492-2.827-6.322-6.322-6.322C239.22,79.666,236.389,82.496,236.389,85.988 M236.389,102.96c0,3.492,2.831,6.325,6.322,6.325
	c3.495,0,6.322-2.833,6.322-6.325c0-3.489-2.827-6.322-6.322-6.322C239.22,96.638,236.389,99.471,236.389,102.96 M236.389,119.935
	c0,3.492,2.831,6.322,6.322,6.322c3.495,0,6.322-2.83,6.322-6.322s-2.827-6.325-6.322-6.325
	C239.22,113.609,236.389,116.442,236.389,119.935 M221.582,43.554c0,3.491,2.833,6.325,6.325,6.325s6.325-2.834,6.325-6.325
	c0-3.489-2.833-6.322-6.325-6.322S221.582,40.064,221.582,43.554 M221.582,60.528c0,3.492,2.833,6.322,6.325,6.322
	s6.325-2.83,6.325-6.322s-2.833-6.322-6.325-6.322S221.582,57.036,221.582,60.528 M221.582,77.5c0,3.492,2.833,6.325,6.325,6.325
	s6.325-2.833,6.325-6.325c0-3.489-2.833-6.322-6.325-6.322S221.582,74.011,221.582,77.5 M221.582,94.476
	c0,3.489,2.833,6.322,6.325,6.322s6.325-2.833,6.325-6.322c0-3.492-2.833-6.325-6.325-6.325S221.582,90.983,221.582,94.476"/>
<path fill="#E2001A" d="M251.69,94.476c0-3.492,2.833-6.325,6.325-6.325c3.495,0,6.325,2.833,6.325,6.325
	c0,3.489-2.83,6.322-6.325,6.322C254.523,100.798,251.69,97.965,251.69,94.476"/>
<path d="M43.239,102.519H4.999V50.714h37.733v6.205H11.995V72.79h28.357v6.208H11.995v17.316h31.244V102.519z M101.896,102.519
	V50.711h-9.959l-14.718,43.8h-0.145l-14.792-43.8H52.253v51.808h6.781V71.926c0-1.516-0.145-8.079-0.145-12.842h0.145l14.574,43.435
	h6.929L95.114,59.01h0.144c0,4.837-0.144,11.4-0.144,12.916v30.593H101.896z M120.215,96.531h14.937
	c7.287,0,10.967-3.683,10.967-9.455c0-7.287-6.425-8.729-12.123-8.729h-13.78V96.531z M113.219,50.714h22.797
	c9.668,0,14.648,5.987,14.648,13.06c0,3.392-1.227,8.155-6.926,10.823c3.393,1.371,9.376,3.751,9.376,12.627
	c0,8.296-6.128,15.295-17.604,15.295h-22.291V50.714z M120.215,72.646h12.627c6.71,0,10.823-2.021,10.823-8.367
	c0-4.837-2.957-7.578-10.753-7.578h-12.697V72.646z M168.551,50.714h-6.996v51.805h33.262v-6.204h-26.266V50.714z"/>
</svg>
